<svg xmlns="http://www.w3.org/2000/svg" shape-rendering="geometricPrecision" text-rendering="geometricPrecision" image-rendering="optimizeQuality" fill-rule="evenodd" clip-rule="evenodd" viewBox="0 0 512 158.15"><path fill="#B3B3B3" fill-rule="nonzero" d="M20.62 0h470.76c5.67 0 10.83 2.32 14.56 6.06l.19.2c3.63 3.73 5.87 8.81 5.87 14.36v116.91c0 5.65-2.33 10.81-6.06 14.54l-.02.02c-3.73 3.73-8.89 6.06-14.54 6.06H20.62c-5.65 0-10.81-2.32-14.56-6.07A20.488 20.488 0 0 1 0 137.53V20.62C0 14.95 2.32 9.79 6.05 6.05 9.79 2.32 14.94 0 20.62 0z"/><path fill="#fff" fill-rule="nonzero" d="M491.38 6.76H20.62c-3.81 0-7.27 1.56-9.79 4.07-2.51 2.52-4.07 5.98-4.07 9.79v116.91c0 3.8 1.56 7.27 4.08 9.78 2.5 2.52 5.97 4.08 9.78 4.08h470.76c3.8 0 7.27-1.56 9.78-4.08 2.52-2.51 4.08-5.98 4.08-9.78V20.62c0-3.73-1.49-7.14-3.92-9.63l-.16-.15c-2.51-2.51-5.97-4.08-9.78-4.08z"/><path fill="red" d="M175.02 54.24s-1.21-8.56-4.95-12.32c-4.72-4.94-10.02-4.97-12.44-5.26-17.37-1.26-43.45-1.26-43.45-1.26h-.04s-26.08 0-43.45 1.26c-2.43.3-7.72.32-12.44 5.26-3.74 3.76-4.93 12.32-4.93 12.32s-1.23 10.05-1.23 20.12v9.41c0 10.05 1.23 20.11 1.23 20.11s1.22 8.56 4.93 12.33c4.72 4.94 10.93 4.78 13.71 5.31 9.94.95 42.23 1.23 42.23 1.23s26.11-.04 43.47-1.28c2.43-.29 7.72-.32 12.45-5.27 3.73-3.75 4.94-12.32 4.94-12.32s1.24-10.05 1.24-20.12v-9.41c-.03-10.05-1.26-20.11-1.26-20.11h-.01zm-73.7 40.95v-34.9l33.55 17.51-33.55 17.39z"/><path fill="#1A1A1A" fill-rule="nonzero" d="m197.98 78.06 1.48-8.73c3.24.81 6.16 1.22 8.76 1.22 2.59 0 4.68-.11 6.27-.32v-2.65l-4.77-.42c-4.3-.39-7.25-1.42-8.86-3.1-1.6-1.67-2.41-4.15-2.41-7.43 0-4.52.98-7.62 2.94-9.31 1.96-1.7 5.28-2.54 9.98-2.54 4.69 0 8.92.44 12.69 1.32l-1.32 8.47c-3.28-.53-5.91-.8-7.88-.8-1.98 0-3.65.09-5.03.27v2.59l3.81.37c4.62.46 7.82 1.56 9.58 3.31 1.76 1.74 2.64 4.17 2.64 7.27 0 2.23-.3 4.1-.9 5.64-.59 1.53-1.31 2.7-2.14 3.49-.83.8-2 1.4-3.52 1.83-1.51.42-2.85.68-3.99.76-1.15.09-2.68.14-4.58.14-4.59 0-8.84-.46-12.75-1.38zm10.03 35.15h-3.8V95.72h-6.67v-3.16h17.12v3.16h-6.65v17.49zm24.68-10.34c0-1.26-.15-2.36-.46-3.3-.31-.94-.74-1.73-1.28-2.36a5.33 5.33 0 0 0-1.94-1.4c-.75-.32-1.58-.47-2.47-.47-.9 0-1.72.15-2.47.47-.75.31-1.4.78-1.94 1.4-.55.63-.97 1.42-1.28 2.36-.31.94-.46 2.04-.46 3.3 0 1.25.15 2.36.46 3.3.31.94.73 1.72 1.28 2.35.54.62 1.19 1.09 1.94 1.41.75.31 1.57.47 2.47.47.89 0 1.72-.16 2.47-.47.74-.32 1.39-.79 1.94-1.41.54-.63.97-1.41 1.28-2.35.31-.94.46-2.05.46-3.3zm3.92 0c0 1.58-.22 3.02-.67 4.33-.45 1.32-1.1 2.45-1.96 3.39-.86.95-1.92 1.69-3.17 2.22-1.25.52-2.67.78-4.27.78-1.6 0-3.02-.26-4.27-.78-1.26-.53-2.31-1.27-3.17-2.22-.86-.94-1.51-2.07-1.96-3.39-.45-1.31-.68-2.75-.68-4.33s.23-3.02.68-4.33c.45-1.31 1.1-2.45 1.96-3.39.86-.95 1.91-1.69 3.17-2.22 1.25-.52 2.67-.78 4.27-.78 1.6 0 3.02.26 4.27.78 1.25.53 2.31 1.27 3.17 2.22.86.94 1.51 2.08 1.96 3.39.45 1.31.67 2.75.67 4.33zm24.52 0c0-1.26-.15-2.36-.46-3.3-.31-.94-.73-1.73-1.28-2.36a5.168 5.168 0 0 0-1.94-1.4c-.75-.32-1.57-.47-2.47-.47-.89 0-1.72.15-2.47.47-.74.31-1.39.78-1.94 1.4-.55.63-.97 1.42-1.28 2.36-.31.94-.46 2.04-.46 3.3 0 1.25.15 2.36.46 3.3.31.94.73 1.72 1.28 2.35.55.62 1.2 1.09 1.94 1.41.75.31 1.58.47 2.47.47.9 0 1.72-.16 2.47-.47.75-.32 1.4-.79 1.94-1.41.55-.63.97-1.41 1.28-2.35.31-.94.46-2.05.46-3.3zm3.93 0c0 1.58-.23 3.02-.68 4.33-.44 1.32-1.1 2.45-1.96 3.39-.86.95-1.91 1.69-3.17 2.22-1.25.52-2.67.78-4.27.78-1.6 0-3.02-.26-4.27-.78-1.25-.53-2.31-1.27-3.17-2.22-.86-.94-1.51-2.07-1.96-3.39-.45-1.31-.67-2.75-.67-4.33s.22-3.02.67-4.33c.45-1.31 1.1-2.45 1.96-3.39.86-.95 1.92-1.69 3.17-2.22 1.25-.52 2.67-.78 4.27-.78 1.6 0 3.02.26 4.27.78 1.26.53 2.31 1.27 3.17 2.22.86.94 1.52 2.08 1.96 3.39.45 1.31.68 2.75.68 4.33zm13.15 10.72c-1.08 0-2.06-.1-2.92-.31-.87-.22-1.63-.52-2.28-.92a6.39 6.39 0 0 1-1.69-1.44c-.47-.58-.83-1.22-1.11-1.94-.23-.58-.39-1.22-.49-1.91-.1-.7-.15-1.49-.15-2.35V92.56h3.8v11.82c0 1.46.17 2.6.52 3.43.4.91.97 1.57 1.71 1.98.75.4 1.64.61 2.66.61 1.01 0 1.9-.21 2.65-.61.75-.41 1.32-1.07 1.71-1.98.35-.83.52-1.97.52-3.43V92.56h3.8v12.16c0 .86-.05 1.65-.15 2.35-.09.69-.26 1.33-.48 1.91-.28.72-.66 1.36-1.13 1.94-.46.56-1.04 1.05-1.71 1.44-.68.4-1.45.7-2.33.92-.87.21-1.85.31-2.93.31zm29.44-14.83c0 1.44-.4 2.66-1.2 3.67-.8 1-2.03 1.74-3.7 2.23v.05l6.19 8.5h-4.55l-5.63-8h-2.6v8h-3.79V92.56h6.28c1.04 0 2.01.06 2.9.18.9.12 1.66.29 2.3.53 1.21.46 2.15 1.15 2.81 2.06.66.91.99 2.05.99 3.43zm-9.62 3.29c.86 0 1.59-.04 2.19-.12.6-.08 1.11-.19 1.52-.35.76-.28 1.28-.68 1.58-1.18.29-.49.44-1.07.44-1.72 0-.55-.12-1.04-.35-1.47-.23-.43-.62-.76-1.18-1.01-.36-.17-.81-.28-1.35-.36-.54-.08-1.22-.12-2.02-.12h-2.7v6.33h1.87zm29.49-6.71c-1.02 0-1.98.17-2.85.51-.87.34-1.61.84-2.23 1.48-.63.65-1.12 1.45-1.46 2.41-.36.95-.53 2.04-.53 3.27 0 1.22.16 2.29.48 3.21.31.92.77 1.69 1.37 2.31.6.61 1.33 1.08 2.19 1.4.86.31 1.83.47 2.92.47.79 0 1.58-.06 2.4-.18.81-.12 1.57-.29 2.28-.52v3.23c-.72.21-1.49.37-2.33.49-.83.11-1.7.17-2.59.17-1.76 0-3.3-.25-4.62-.75-1.33-.5-2.44-1.2-3.33-2.12-.9-.91-1.57-2-2.02-3.27-.45-1.27-.67-2.68-.67-4.21 0-1.58.24-3.04.72-4.39.48-1.35 1.17-2.52 2.07-3.5.91-.99 2.04-1.77 3.39-2.34 1.36-.56 2.89-.85 4.6-.86.87 0 1.7.06 2.49.17.78.12 1.48.29 2.11.5v3.19c-.82-.25-1.59-.42-2.3-.52-.71-.1-1.41-.15-2.09-.15zm12.79 5.73h9.55v-8.51h3.8v20.65h-3.8v-8.98h-9.55v8.98h-3.8V92.56h3.8v8.51zm30.72 6.89h-7.82l-2 5.25h-4.04l8.21-20.65h3.45l8.21 20.65h-4l-2.01-5.25zm-3.94-10.43c-.74 2.15-1.39 3.95-1.96 5.4l-.7 1.87h5.38l-.7-1.87c-.56-1.46-1.22-3.26-1.96-5.4h-.06zm24.24 4.63c1.48 2.11 2.69 3.98 3.62 5.62h.09c-.13-2.69-.19-4.64-.19-5.87v-9.35h3.8v20.65h-3.97l-6.74-9.51c-1.19-1.64-2.41-3.55-3.68-5.72h-.09c.12 2.53.18 4.49.18 5.88v9.35h-3.8V92.56h3.97l6.81 9.6zm23.6 0c1.48 2.11 2.69 3.98 3.61 5.62h.09c-.12-2.69-.18-4.64-.18-5.87v-9.35h3.79v20.65h-3.96l-6.75-9.51c-1.18-1.64-2.41-3.55-3.68-5.72h-.09c.13 2.53.19 4.49.19 5.88v9.35h-3.8V92.56h3.97l6.81 9.6zm16.62 7.89h10.16v3.16h-13.96V92.56h13.4v3.16h-9.6v5.35h8.25v3.16h-8.25v5.82zm18.54-17.49v17.49h9.67v3.16H446.3V92.56h3.79zM240.42 45.57v24.82h3.75c1.34 0 2.26-.17 2.75-.51.5-.33.75-1.1.75-2.3V45.57h10.58v18.57c0 3-.19 5.42-.58 7.25-.39 1.84-1.11 3.39-2.17 4.66-1.06 1.27-2.51 2.15-4.34 2.65-1.84.49-4.22.74-7.15.74-2.93 0-5.3-.25-7.11-.74-1.82-.5-3.26-1.38-4.32-2.65-1.05-1.27-1.78-2.82-2.17-4.66-.38-1.83-.58-4.25-.58-7.25V45.57h10.59zm23.12 33.07V45.57h17.15c3.17 0 5.44.62 6.79 1.85 1.36 1.24 2.04 3.04 2.04 5.4 0 2.36-.43 4.19-1.29 5.48-.87 1.28-2.02 2.12-3.47 2.51v.32c4.27.74 6.4 3.65 6.4 8.73 0 2.64-.7 4.77-2.12 6.38-1.41 1.6-3.58 2.4-6.5 2.4h-19zm14.71-13.17h-4.13v5.4h4.08c1.48 0 2.22-.9 2.22-2.7 0-1.8-.72-2.7-2.17-2.7zm-.79-12.65h-3.34v4.92h3.28c1.34 0 2.02-.82 2.02-2.46 0-1.64-.66-2.46-1.96-2.46zm16.88 25.24 1.48-8.73c3.24.81 6.16 1.22 8.76 1.22 2.59 0 4.68-.11 6.27-.32v-2.65l-4.77-.42c-4.3-.39-7.25-1.42-8.86-3.1-1.6-1.67-2.41-4.15-2.41-7.43 0-4.52.98-7.62 2.94-9.31 1.96-1.7 5.28-2.54 9.98-2.54 4.69 0 8.92.44 12.69 1.32l-1.32 8.47c-3.28-.53-5.91-.8-7.88-.8-1.98 0-3.65.09-5.03.27v2.59L310 57c4.62.46 7.82 1.56 9.58 3.31 1.76 1.74 2.64 4.17 2.64 7.27 0 2.23-.3 4.1-.9 5.64-.59 1.53-1.31 2.7-2.14 3.49-.83.8-2 1.4-3.52 1.83-1.52.42-2.85.68-3.99.76-1.15.09-2.67.14-4.58.14-4.59 0-8.84-.46-12.75-1.38zm54.61-8.89.79 8.89c-2.22.92-5.01 1.38-8.36 1.38-3.35 0-6.04-.36-8.07-1.06-2.03-.71-3.63-1.82-4.79-3.34-1.16-1.51-1.97-3.29-2.43-5.34-.46-2.05-.69-4.57-.69-7.57s.23-5.53.69-7.59c.46-2.06 1.27-3.85 2.43-5.37 2.26-2.93 6.4-4.39 12.44-4.39 1.34 0 2.92.13 4.73.39 1.82.27 3.17.59 4.05.98l-1.59 8.1c-2.29-.5-4.39-.74-6.29-.74-1.91 0-3.23.17-3.97.53-.74.35-1.11 1.06-1.11 2.11v13.87c1.37.28 2.77.42 4.18.42 3 0 5.66-.42 7.99-1.27zm34.13 9.47h-11.64l-4.34-9.84h-2.28v9.84h-10.58V45.57h16.67c7.58 0 11.37 3.86 11.37 11.59 0 5.29-1.64 8.78-4.92 10.48l5.72 11zm-18.26-24.6v6.61h2.43c1.28 0 2.2-.13 2.78-.39.59-.27.88-.88.88-1.83v-2.17c0-.95-.29-1.56-.88-1.83-.58-.26-1.5-.39-2.78-.39h-2.43zm22.75 24.6V45.57h10.59v33.07h-10.59zm16.67 0V45.57h17.15c3.17 0 5.44.62 6.8 1.85 1.36 1.24 2.03 3.04 2.03 5.4 0 2.36-.43 4.19-1.29 5.48-.87 1.28-2.02 2.12-3.47 2.51v.32c4.27.74 6.41 3.65 6.41 8.73 0 2.64-.71 4.77-2.12 6.38-1.41 1.6-3.58 2.4-6.51 2.4h-19zm14.71-13.17h-4.12v5.4h4.07c1.48 0 2.22-.9 2.22-2.7 0-1.8-.72-2.7-2.17-2.7zm-.79-12.65h-3.33v4.92h3.28c1.34 0 2.01-.82 2.01-2.46 0-1.64-.65-2.46-1.96-2.46zm39.37 13.33h-10.58v4.03h12.96v8.46h-23.55V45.57h23.29l-1.33 8.47h-11.37v4.44h10.58v7.67z"/></svg>